<svg xmlns="http://www.w3.org/2000/svg" width="1774" height="887" viewBox="0 0 1774 887" role="img" aria-labelledby="title desc"><title id="title">Legacy Mix and Match compatibility</title><desc id="desc">Existing bundle setups continue smoothly from dashboard to storefront.</desc><defs><marker id="a" markerWidth="12" markerHeight="12" refX="10" refY="6" orient="auto"><path d="M1 1l10 5-10 5z" fill="#f15d22"/></marker></defs><rect width="1774" height="887" fill="#fff7f0"/><circle cx="1500" cy="130" r="240" fill="#ffe8da"/><circle cx="190" cy="820" r="270" fill="#f5eee9"/><text x="887" y="112" text-anchor="middle" font-family="Arial,sans-serif" font-size="38" font-weight="700" fill="#1f1713">Your existing setup keeps working</text><path d="M604 445h550" fill="none" stroke="#f15d22" stroke-width="10" stroke-linecap="round" marker-end="url(#a)"/><g transform="translate(190 220)"><rect width="450" height="470" rx="34" fill="#fff" stroke="#eaded5" stroke-width="5"/><rect width="450" height="88" rx="34" fill="#1f1713"/><path d="M0 54h450v34H0z" fill="#1f1713"/><circle cx="42" cy="43" r="10" fill="#f15d22"/><text x="72" y="52" font-family="Arial,sans-serif" font-size="25" font-weight="700" fill="#fff">Original dashboard</text><rect x="42" y="132" width="366" height="78" rx="18" fill="#fff1e8" stroke="#f15d22" stroke-width="3"/><text x="72" y="180" font-family="Arial,sans-serif" font-size="24" font-weight="700" fill="#c84712">Mix &amp; Match</text><rect x="42" y="245" width="150" height="150" rx="22" fill="#ffe0cf"/><rect x="216" y="250" width="170" height="22" rx="11" fill="#d9cec7"/><rect x="216" y="292" width="126" height="18" rx="9" fill="#eaded5"/><rect x="216" y="345" width="112" height="44" rx="14" fill="#1f1713"/></g><g transform="translate(1160 220)"><rect width="424" height="470" rx="34" fill="#fff" stroke="#f15d22" stroke-width="5"/><rect x="36" y="35" width="352" height="64" rx="18" fill="#f15d22"/><text x="212" y="77" text-anchor="middle" font-family="Arial,sans-serif" font-size="24" font-weight="700" fill="#fff">Storefront bundle</text><g fill="#ffe0cf" stroke="#f15d22" stroke-width="3"><rect x="38" y="146" width="100" height="120" rx="18"/><rect x="162" y="146" width="100" height="120" rx="18"/><rect x="286" y="146" width="100" height="120" rx="18"/></g><g fill="#f15d22"><circle cx="88" cy="197" r="26"/><circle cx="212" cy="197" r="26"/><circle cx="336" cy="197" r="26"/></g><rect x="38" y="310" width="348" height="62" rx="18" fill="#f5eee9"/><text x="212" y="349" text-anchor="middle" font-family="Arial,sans-serif" font-size="21" font-weight="700" fill="#1f1713">3 products selected</text><rect x="38" y="393" width="348" height="50" rx="16" fill="#1f1713"/><text x="212" y="426" text-anchor="middle" font-family="Arial,sans-serif" font-size="20" font-weight="700" fill="#fff">Add bundle</text></g><g transform="translate(765 358)"><circle cx="110" cy="88" r="88" fill="#fff" stroke="#f15d22" stroke-width="6"/><path d="M69 89l27 27 57-61" fill="none" stroke="#178a63" stroke-width="14" stroke-linecap="round" stroke-linejoin="round"/><text x="110" y="212" text-anchor="middle" font-family="Arial,sans-serif" font-size="22" font-weight="700" fill="#1f1713">Compatible</text></g></svg>
