<svg width="96" height="96" viewBox="0 0 96 96" fill="none" xmlns="http://www.w3.org/2000/svg">
<path d="M73.7324 3.43555C76.6658 7.72997 81.0432 16.425 83.6934 25.7451C85.0245 30.4265 85.9643 35.4153 86.0107 40.1895C86.0469 43.9054 85.543 47.6544 84.1318 51.0537C84.3499 51.2346 84.5889 51.4265 84.8477 51.627C85.971 52.4971 87.1486 53.2916 87.8613 53.7383L92.0283 56.3486L47.543 95.9482V96L47.5137 95.9736L47.4854 96V95.9482L3 56.3486L7.16699 53.7383C7.87974 53.2916 9.05727 52.4971 10.1807 51.627C10.4394 51.4265 10.6784 51.2346 10.8965 51.0537C9.48528 47.6544 8.98145 43.9054 9.01758 40.1895C9.06405 35.4153 10.0038 30.4265 11.335 25.7451C13.9852 16.425 18.3625 7.72997 21.2959 3.43555L23.6426 0L26.8965 2.59375L24.4873 5.61621C26.8964 2.59348 26.898 2.59459 26.8994 2.5957L26.9023 2.59766L26.9082 2.60352L26.9238 2.61523C26.9351 2.62435 26.9485 2.63583 26.9639 2.64844C26.9946 2.67362 27.0337 2.70594 27.0801 2.74512C27.1728 2.82355 27.296 2.93026 27.4463 3.06543C27.7473 3.33613 28.1573 3.72216 28.6484 4.22656C29.6303 5.235 30.9399 6.72058 32.3516 8.71191C35.1787 12.7001 38.4096 18.7082 40.2422 26.9375C40.2422 26.9375 37.3068 23.6359 35.6318 21.7217C33.9568 19.8074 30.4781 16.9543 28.6484 15.4082C27.6245 14.5429 25.457 12.3738 25.1777 12.0137C22.9937 16.112 20.486 21.8265 18.7705 27.8594C17.5582 32.1228 16.7857 36.396 16.748 40.2646C16.7102 44.1522 17.4156 47.3678 18.8916 49.7734L20.2227 51.9443L18.7549 54.0244C17.8563 55.2973 16.4341 56.5399 15.2402 57.4844L47.5137 88.9404L79.7881 57.4844C78.5942 56.5399 77.172 55.2973 76.2734 54.0244L74.8057 51.9443L76.1367 49.7734C77.6127 47.3678 78.3181 44.1522 78.2803 40.2646C78.2426 36.396 77.4701 32.1228 76.2578 27.8594C74.5424 21.8265 72.0346 16.112 69.8506 12.0137C69.5713 12.3738 67.4038 14.5429 66.3799 15.4082C64.5502 16.9543 61.0715 19.8074 59.3965 21.7217C57.7215 23.6359 54.7861 26.9375 54.7861 26.9375C56.6187 18.7082 59.8496 12.7001 62.6768 8.71191C64.0884 6.7206 65.398 5.235 66.3799 4.22656C66.871 3.72216 67.281 3.33613 67.582 3.06543C67.7323 2.93027 67.8555 2.82355 67.9482 2.74512C67.9946 2.70595 68.0338 2.67362 68.0645 2.64844C68.0798 2.63583 68.0932 2.62435 68.1045 2.61523L68.1201 2.60352L68.126 2.59766L68.1289 2.5957C68.1303 2.59459 68.1319 2.59348 70.541 5.61621L68.1318 2.59375L71.3857 0L73.7324 3.43555Z" fill="#FF682C"/>
</svg>
